<svg width="26" height="26" viewBox="0 0 26 26" fill="none" xmlns="http://www.w3.org/2000/svg">
<path d="M24.9366 19.1455L21.3592 15.5681C20.0815 14.2904 17.9095 14.8015 17.3985 16.4624C17.0152 17.6123 15.7375 18.2512 14.5876 17.9956C12.0323 17.3568 8.58266 14.0349 7.94384 11.3518C7.56054 10.2019 8.32713 8.9242 9.47702 8.54096C11.138 8.02989 11.649 5.85788 10.3714 4.58023L6.79395 1.0028C5.77183 0.108442 4.23864 0.108442 3.34428 1.0028L0.916742 3.43034C-1.5108 5.98565 1.17227 12.7572 7.17725 18.7622C13.1822 24.7672 19.9538 27.578 22.5091 25.0227L24.9366 22.5951C25.831 21.573 25.831 20.0398 24.9366 19.1455Z" fill="white"/>
</svg>
