<svg width="23" height="23" viewBox="0 0 23 23" fill="none" xmlns="http://www.w3.org/2000/svg">
<g clip-path="url(#clip0_1_1039)">
<path d="M14.4974 12.1169L12.6234 13.9972C11.8635 14.7598 10.5264 14.7763 9.75006 13.9972L7.87601 12.1169L1.14528 18.8695C1.39583 18.9854 1.67206 19.0545 1.96574 19.0545H20.4077C20.7014 19.0545 20.9776 18.9855 21.228 18.8696L14.4974 12.1169Z" fill="#B19178"/>
<path d="M20.4077 3.32031H1.96565C1.67197 3.32031 1.39574 3.38945 1.14528 3.5053L8.33754 10.7214C8.33802 10.7219 8.33859 10.722 8.33907 10.7225C8.33955 10.7229 8.33964 10.7236 8.33964 10.7236L10.6782 13.0699C10.9266 13.3183 11.4468 13.3183 11.6952 13.0699L14.0333 10.724C14.0333 10.724 14.0339 10.7229 14.0343 10.7225C14.0343 10.7225 14.0354 10.7219 14.0359 10.7214L21.2279 3.50526C20.9775 3.38936 20.7013 3.32031 20.4077 3.32031Z" fill="#B19178"/>
<path d="M0.208007 4.42212C0.0783884 4.68424 -0.00114822 4.9752 -0.00114822 5.28688V17.0863C-0.00114822 17.398 0.078301 17.6889 0.207963 17.951L6.95036 11.1868L0.208007 4.42212Z" fill="#B19178"/>
<path d="M22.1652 4.42212L15.4229 11.1869L22.1652 17.9512C22.2948 17.6891 22.3744 17.3981 22.3744 17.0864V5.28697C22.3744 4.9752 22.2948 4.68424 22.1652 4.42212Z" fill="#B19178"/>
</g>
<defs>
<clipPath id="clip0_1_1039">
<rect width="22.3751" height="22.3751" fill="white"/>
</clipPath>
</defs>
</svg>
