<svg width="24" height="24" viewBox="0 0 24 24" fill="none" xmlns="http://www.w3.org/2000/svg">
<path d="M23.033 17.3766L19.7286 14.0721C18.5484 12.892 16.5421 13.3641 16.0701 14.8982C15.716 15.9604 14.5359 16.5505 13.4737 16.3144C11.1134 15.7243 7.92701 12.6559 7.33693 10.1776C6.98289 9.11543 7.69098 7.93528 8.75312 7.58128C10.2873 7.10922 10.7594 5.10295 9.57923 3.9228L6.27479 0.618361C5.33067 -0.207748 3.91448 -0.207748 3.08837 0.618361L0.846079 2.86066C-1.39622 5.22097 1.08211 11.4758 6.62884 17.0225C12.1756 22.5693 18.4304 25.1656 20.7907 22.8053L23.033 20.563C23.8592 19.6189 23.8592 18.2027 23.033 17.3766Z" fill="white"/>
</svg>
