<svg width="22" height="23" viewBox="0 0 22 23" fill="none" xmlns="http://www.w3.org/2000/svg">
<path d="M11 0.375244C4.925 0.375244 0 5.30012 0 11.3752C0 17.4504 4.92488 22.3752 11 22.3752C17.0751 22.3752 22 17.4504 22 11.3752C22 5.30012 17.0751 0.375244 11 0.375244ZM11 3.70858C11.3683 3.70858 11.6666 4.00712 11.6666 4.37518V10.9895L16.8229 13.9687C17.1416 14.1529 17.2465 14.556 17.0623 14.8751C16.8782 15.1938 16.475 15.2987 16.156 15.1146C14.3277 14.0599 12.4894 12.9991 10.6663 11.9479C10.4672 11.8326 10.3328 11.6215 10.3328 11.375V4.37503C10.3328 4.00673 10.6314 3.70842 10.9995 3.70842L11 3.70858Z" fill="#B19178"/>
</svg>
