<svg width="245" height="244" viewBox="0 0 245 244" fill="none" xmlns="http://www.w3.org/2000/svg">
<path d="M143.892 107.226H137.937C131.238 113.429 120.571 117.398 108.414 117.398C96.2569 117.398 85.5895 113.429 78.8906 107.226H74.6733C53.0899 107.226 35.475 120.375 35.475 136.749H181.352C181.352 120.625 164.483 107.226 143.891 107.226H143.892Z" fill="#B19178" fill-opacity="0.1"/>
<path d="M108.416 22.1317C84.1036 22.1317 64.5036 41.7299 64.5036 66.044C64.5036 90.3564 84.1018 109.956 108.416 109.956C132.728 109.956 152.328 90.3582 152.328 66.044C152.079 41.7299 132.479 22.1317 108.416 22.1317V22.1317ZM108.416 100.032C89.5616 100.032 74.4281 84.6508 74.4281 66.044C74.4281 63.0675 74.9248 60.3384 75.4197 57.8571C79.3895 59.842 86.5833 62.5712 95.0179 62.5712C100.973 62.5712 107.422 61.0829 113.377 56.8656C114.121 56.3689 129.007 45.702 140.915 56.3689C141.907 59.3455 142.403 62.8188 142.403 66.0444C142.403 84.6512 127.022 100.032 108.415 100.032L108.416 100.032Z" fill="#B19178" fill-opacity="0.1"/>
<path d="M211.371 239.211H187.306C188.794 237.226 189.788 234.746 189.788 232.017V153.372C189.788 146.673 184.33 141.464 177.88 141.464H38.9495C32.2506 141.464 27.0416 146.922 27.0416 153.372V232.017C27.0416 234.746 28.0332 237.228 29.5232 239.211H2.23241C0.991607 239.211 0 240.202 0 241.443V241.69C0 242.931 0.991607 243.923 2.23241 243.923H211.372C212.613 243.923 213.605 242.931 213.605 241.69V241.443C213.605 240.204 212.613 239.212 211.372 239.212L211.371 239.211ZM108.414 205.47C100.97 205.47 95.0176 199.516 95.0176 192.074C95.0176 184.631 100.972 178.678 108.414 178.678C115.857 178.678 121.81 184.633 121.81 192.074C121.81 199.516 115.855 205.47 108.414 205.47Z" fill="#B19178" fill-opacity="0.1"/>
<path d="M202.439 42.4752L199.213 39.2512L195.74 42.7244L202.191 48.9266L202.438 49.4233L212.858 39.0022L213.355 38.5072L209.882 35.0341L202.439 42.4752Z" fill="#B19178" fill-opacity="0.1"/>
<path d="M242.879 30.3192C237.421 8.73578 215.588 -4.16535 194.005 1.29263C172.422 6.75062 159.521 28.5834 164.979 50.1664C167.708 60.3385 173.91 68.5255 182.097 73.9839L171.429 90.1089L213.853 79.1925C235.436 73.7345 248.337 51.9017 242.879 30.3187L242.879 30.3192ZM221.79 42.2271C220.302 48.9259 216.332 57.8572 204.921 63.0662L203.93 63.5628L202.938 63.0662C191.525 58.1048 187.557 49.1736 186.069 42.2271C184.58 35.2805 185.572 29.5749 185.821 28.8311L186.318 26.5987H188.8C190.288 26.5987 198.227 26.3512 201.948 20.3964L204.181 16.9232L206.16 20.6439C209.634 26.3495 217.821 26.8461 219.309 26.8461H221.791L222.288 29.0785C222.288 29.5752 223.279 35.2808 221.791 42.2273L221.79 42.2271Z" fill="#B19178" fill-opacity="0.1"/>
</svg>
