<svg width="249" height="210" viewBox="0 0 249 210" fill="none" xmlns="http://www.w3.org/2000/svg">
<path d="M243.02 198.933H230.974V48.6197C230.974 46.5247 229.926 44.4297 227.831 43.9059L126.224 0.434683C124.652 -0.0890674 123.605 -0.0890674 122.034 0.434683L20.4263 43.9059C18.3312 44.9534 17.2838 46.5247 17.2838 48.6197V198.933H5.2375C2.61875 198.933 0 201.552 0 204.17C0 206.789 2.61875 209.408 5.2375 209.408H41.9V63.2847C41.9 60.6659 44.5187 58.0472 47.1375 58.0472H201.12C203.739 58.0472 206.357 60.6659 206.357 63.2847V209.408H243.02C245.639 209.408 248.257 206.789 248.257 204.17C248.257 201.552 246.162 198.933 243.02 198.933Z" fill="#B19178" fill-opacity="0.1"/>
<path d="M113.656 150.748H94.8012V171.698C94.8012 174.317 92.7062 176.935 89.5637 176.935C86.945 176.935 84.3262 174.317 84.3262 171.698V150.748H65.4712C62.8525 150.748 60.2337 153.367 60.2337 155.985V204.17C60.2337 206.789 62.8525 209.408 65.4712 209.408H113.656C116.275 209.408 118.894 206.789 118.894 204.17V155.985C118.894 152.843 116.799 150.748 113.656 150.748Z" fill="#B19178" fill-opacity="0.1"/>
<path d="M182.792 150.748H163.937V171.698C163.937 174.317 161.318 176.935 158.699 176.935C156.08 176.935 153.462 174.317 153.462 171.698V150.748H134.607C131.464 150.748 129.369 153.367 129.369 155.985V204.17C129.369 206.789 131.464 209.408 134.607 209.408H182.792C185.41 209.408 188.029 206.789 188.029 204.17V155.985C188.029 152.843 185.934 150.748 182.792 150.748Z" fill="#B19178" fill-opacity="0.1"/>
<path d="M147.704 81.613H128.849V102.563C128.849 105.182 126.23 107.8 123.611 107.8C120.992 107.8 118.374 105.182 118.374 102.563V81.613H99.5186C96.3761 81.613 94.2811 84.2317 94.2811 86.8505V135.035C94.2811 137.654 96.3761 140.273 99.5186 140.273H147.704C150.322 140.273 152.941 137.654 152.941 135.035V86.8505C152.941 83.708 150.846 81.613 147.704 81.613Z" fill="#B19178" fill-opacity="0.1"/>
</svg>
