<svg width="195" height="181" viewBox="0 0 195 181" fill="none" xmlns="http://www.w3.org/2000/svg">
<path fill-rule="evenodd" clip-rule="evenodd" d="M176.465 149.345H132.379C128.68 149.345 128.676 154.972 132.379 154.972H160.059C167.152 154.972 172.92 160.741 172.92 167.837C172.92 174.932 167.154 180.703 160.059 180.703H36.1182V76.9458L39.5768 76.9358C47.711 76.9129 54.1424 73.7086 58.7782 67.003C66.8254 55.3659 67.7982 53.1987 79.7439 45.3885C93.5016 36.3969 99.2212 20.7118 102.672 10.3766C105.011 3.37079 112.202 -2.78453 117.289 2.5697C126.47 12.2313 122.667 43.7316 111.821 56.2539C110.251 58.0667 111.548 60.9109 113.948 60.9109H173.285C180.381 60.9109 186.147 66.6767 186.147 73.7723C186.147 80.8654 180.378 86.6338 173.285 86.6338H132.38C128.677 86.6338 128.682 92.261 132.38 92.261H181.861C188.954 92.261 194.723 98.0309 194.723 105.125C194.723 112.218 188.953 117.987 181.861 117.987L132.38 117.988C128.679 117.988 128.679 123.616 132.38 123.616H176.471C183.564 123.616 189.332 129.384 189.332 136.48C189.332 143.576 183.564 149.344 176.469 149.344L176.465 149.345ZM0.648315 76.9959L23.9867 76.9516V180.701H0.648315V76.9959Z" fill="#B19178" fill-opacity="0.1"/>
</svg>
