<svg width="18" height="18" viewBox="0 0 18 18" fill="none" xmlns="http://www.w3.org/2000/svg">
<g clip-path="url(#clip0_1_1111)">
<path d="M11.6637 9.74756L10.1561 11.2602C9.5448 11.8737 8.46916 11.8869 7.84461 11.2602L6.337 9.74756L0.922379 15.1798C1.12393 15.273 1.34615 15.3286 1.5824 15.3286H16.4183C16.6546 15.3286 16.8767 15.273 17.0782 15.1798L11.6637 9.74756Z" fill="white"/>
<path d="M16.4183 2.6709H1.58233C1.34608 2.6709 1.12386 2.72652 0.922379 2.81971L6.70829 8.62482C6.70868 8.62521 6.70913 8.62528 6.70952 8.62566C6.70991 8.62605 6.70998 8.62658 6.70998 8.62658L8.59129 10.5141C8.79112 10.7139 9.20955 10.7139 9.40938 10.5141L11.2903 8.62689C11.2903 8.62689 11.2908 8.62605 11.2912 8.62566C11.2912 8.62566 11.292 8.62521 11.2924 8.62482L17.0782 2.81968C16.8767 2.72645 16.6545 2.6709 16.4183 2.6709Z" fill="white"/>
<path d="M0.167754 3.55737C0.0634808 3.76824 -0.00050354 4.00231 -0.00050354 4.25304V13.7452C-0.00050354 13.996 0.0634105 14.23 0.167719 14.4409L5.59173 8.99931L0.167754 3.55737Z" fill="white"/>
<path d="M17.8309 3.55737L12.407 8.99938L17.8309 14.441C17.9352 14.2302 17.9992 13.9961 17.9992 13.7453V4.25312C17.9992 4.00231 17.9352 3.76824 17.8309 3.55737Z" fill="white"/>
</g>
<defs>
<clipPath id="clip0_1_1111">
<rect width="18" height="18" fill="white"/>
</clipPath>
</defs>
</svg>
