<svg width="207" height="224" viewBox="0 0 207 224" fill="none" xmlns="http://www.w3.org/2000/svg">
<path d="M116.913 104.045H99.4762C91.6636 104.045 85.3407 110.368 85.3407 118.181V218.897C85.3407 221.453 87.4338 223.547 89.9909 223.547H126.4C128.957 223.547 131.05 221.454 131.05 218.897L131.049 118.181C131.049 110.368 124.724 104.045 116.913 104.045H116.913Z" fill="#B19178" fill-opacity="0.1"/>
<path d="M192.516 45.3667H173.08C165.267 45.3667 158.944 51.7371 158.944 59.5022V218.901C158.944 221.458 160.99 223.551 163.594 223.551H202.002C204.559 223.551 206.652 221.458 206.652 218.901V59.5022C206.652 51.7371 200.329 45.3667 192.517 45.3667H192.516Z" fill="#B19178" fill-opacity="0.1"/>
<path d="M29.8146 159.148H14.6571C6.89209 159.148 0.521667 165.473 0.521667 173.284V218.897C0.521667 221.453 2.6131 223.547 5.17189 223.547H39.3025C41.9066 223.547 43.9527 221.454 43.9527 218.897V173.284C43.951 165.471 37.628 159.148 29.8155 159.148H29.8146Z" fill="#B19178" fill-opacity="0.1"/>
<path d="M170.509 21.6635L166.783 27.0961C165.334 29.2145 165.87 32.1069 167.991 33.5594C168.795 34.1109 169.708 34.374 170.615 34.374C172.096 34.374 173.553 33.6673 174.457 32.3534L184.511 17.6933C184.595 17.5702 184.607 17.4252 184.678 17.297C184.902 16.8956 185.116 16.4891 185.214 16.0337C185.334 15.4737 185.331 14.9037 185.243 14.3471C185.236 14.3032 185.253 14.2644 185.245 14.2206C185.245 14.2189 185.243 14.2189 185.243 14.2189C185.133 13.6219 184.902 13.0501 184.568 12.5323C184.233 12.0179 183.806 11.576 183.307 11.2336C183.305 11.2319 183.303 11.2286 183.302 11.2286L168.643 1.17293C166.537 -0.274212 163.634 0.260456 162.182 2.37551C160.728 4.49389 161.264 7.38799 163.384 8.84222L168.758 12.5292L158.24 14.4638C146.461 16.6277 135.948 23.6204 129.395 33.6476L116.29 53.6932C109.974 63.3542 99.842 70.1106 88.4945 72.2293L75.8668 74.5838C65.354 76.5454 56.1282 82.4046 49.8877 91.0906L10.8358 145.421C9.33299 147.506 9.81032 150.412 11.8933 151.909C12.7147 152.5 13.6643 152.783 14.6037 152.783C16.0525 152.783 17.4743 152.112 18.3817 150.847L57.4337 96.5163C62.2743 89.7884 69.4224 85.2461 77.5721 83.725L90.1998 81.3704C104.027 78.7882 116.373 70.5558 124.07 58.7834L137.176 38.7343C142.344 30.8289 150.63 25.3156 159.916 23.6088L170.509 21.6635Z" fill="#B19178" fill-opacity="0.1"/>
</svg>
