<svg width="212" height="66" viewBox="0 0 212 66" fill="none" xmlns="http://www.w3.org/2000/svg">
<path d="M0.074707 32.3406H20.8604V46.3521H0.074707V32.3406Z" fill="white"/>
<path d="M22.455 32.3406H43.2406V46.3521H22.455V32.3406Z" fill="white"/>
<path d="M0.074707 16.3796H20.8604V30.3822H0.074707V16.3796Z" fill="white"/>
<path d="M22.455 16.3796H43.2406V30.3822H22.455V16.3796Z" fill="white"/>
<path d="M0 47.7227H43.4855V49.6906H0V47.7227Z" fill="#B19178"/>
<path d="M0.0367432 49.6367H6.64799V53.0014H0.0367432V49.6367Z" fill="#B19178"/>
<path d="M36.8564 49.6367H43.4862V53.0014H36.8564V49.6367Z" fill="#B19178"/>
<path d="M19.8052 49.6367H23.8229V53.0014H19.8052V49.6367Z" fill="#B19178"/>
<path d="M63.7968 53L64.424 16.715H71.2778L76.4294 41.8457L81.8049 16.715H88.4348L89.1067 53H84.1791L83.6416 27.7797L78.49 53H74.5031L69.262 27.6901L68.7692 53H63.7968ZM104.32 53.4928C101.752 53.4928 99.7063 53.0149 98.1832 52.0593C96.6601 51.1036 95.5701 49.7299 94.9131 47.938C94.2561 46.1462 93.9276 44.0258 93.9276 41.577V28.0037C93.9276 25.5548 94.2561 23.4643 94.9131 21.7322C95.5701 19.9702 96.6601 18.6264 98.1832 17.7006C99.7063 16.7748 101.752 16.3119 104.32 16.3119C106.948 16.3119 109.009 16.7748 110.502 17.7006C112.025 18.6264 113.115 19.9702 113.772 21.7322C114.459 23.4643 114.803 25.5548 114.803 28.0037V41.6218C114.803 44.0408 114.459 46.1462 113.772 47.938C113.115 49.7 112.025 51.0738 110.502 52.0593C109.009 53.0149 106.948 53.4928 104.32 53.4928ZM104.32 48.61C105.425 48.61 106.232 48.3711 106.739 47.8932C107.277 47.4154 107.635 46.7584 107.814 45.9222C107.994 45.086 108.083 44.1751 108.083 43.1896V26.4806C108.083 25.4652 107.994 24.5544 107.814 23.7481C107.635 22.9417 107.277 22.3146 106.739 21.8666C106.232 21.3888 105.425 21.1499 104.32 21.1499C103.275 21.1499 102.484 21.3888 101.946 21.8666C101.409 22.3146 101.05 22.9417 100.871 23.7481C100.692 24.5544 100.602 25.4652 100.602 26.4806V43.1896C100.602 44.1751 100.677 45.086 100.826 45.9222C101.005 46.7584 101.364 47.4154 101.901 47.8932C102.439 48.3711 103.245 48.61 104.32 48.61ZM119.796 53V16.715H126.381V31.901H133.773V16.715H140.403V53H133.773V36.6046H126.381V53H119.796ZM145.955 53V16.715H161.185V21.3739H152.584V31.8114H159.349V36.4254H152.584V48.4308H161.275V53H145.955ZM165.205 53V16.715H171.79V31.9458H173.134L179.002 16.715H185.587L178.689 33.8272L186.125 53H179.405L173.134 36.291H171.79V53H165.205ZM199.116 53.4928C196.459 53.4928 194.368 52.9701 192.845 51.9249C191.352 50.8796 190.307 49.4611 189.709 47.6692C189.112 45.8475 188.813 43.757 188.813 41.3978V28.4517C188.813 25.9729 189.112 23.8227 189.709 22.001C190.307 20.1793 191.352 18.7757 192.845 17.7902C194.368 16.8046 196.459 16.3119 199.116 16.3119C201.625 16.3119 203.581 16.7449 204.985 17.611C206.418 18.4472 207.434 19.6567 208.031 21.2395C208.628 22.8223 208.927 24.6589 208.927 26.7494V29.7956H202.566V26.6598C202.566 25.6444 202.506 24.7186 202.387 23.8824C202.297 23.0462 202.013 22.3892 201.535 21.9114C201.088 21.4037 200.296 21.1499 199.161 21.1499C198.026 21.1499 197.19 21.4187 196.653 21.9562C196.145 22.4639 195.816 23.1657 195.667 24.0616C195.518 24.9277 195.443 25.9132 195.443 27.0182V42.7865C195.443 44.1005 195.548 45.1905 195.757 46.0566C195.966 46.8928 196.339 47.5349 196.877 47.9828C197.444 48.4009 198.206 48.61 199.161 48.61C200.266 48.61 201.043 48.3561 201.491 47.8484C201.969 47.3109 202.267 46.6091 202.387 45.743C202.506 44.8769 202.566 43.9064 202.566 42.8313V39.5611H208.927V42.4729C208.927 44.6231 208.643 46.5344 208.076 48.2068C207.508 49.8493 206.508 51.1484 205.074 52.1041C203.671 53.0299 201.685 53.4928 199.116 53.4928Z" fill="white"/>
<mask id="mask0_1_1009" style="mask-type:alpha" maskUnits="userSpaceOnUse" x="61" y="33" width="151" height="22">
<rect x="61.1534" y="33.9741" width="150.846" height="20.3846" fill="#FFC501"/>
</mask>
<g mask="url(#mask0_1_1009)">
<path d="M63.7964 52.9998L64.4235 16.7148H71.2773L76.4289 41.8455L81.8044 16.7148H88.4343L89.1062 52.9998H84.1786L83.6411 27.7795L78.4895 52.9998H74.5027L69.2615 27.6899L68.7687 52.9998H63.7964ZM104.32 53.4925C101.751 53.4925 99.7058 53.0147 98.1827 52.059C96.6596 51.1034 95.5696 49.7296 94.9126 47.9378C94.2556 46.1459 93.9271 44.0256 93.9271 41.5767V28.0035C93.9271 25.5546 94.2556 23.4641 94.9126 21.732C95.5696 19.97 96.6596 18.6261 98.1827 17.7003C99.7058 16.7745 101.751 16.3116 104.32 16.3116C106.948 16.3116 109.008 16.7745 110.502 17.7003C112.025 18.6261 113.115 19.97 113.772 21.732C114.459 23.4641 114.802 25.5546 114.802 28.0035V41.6215C114.802 44.0405 114.459 46.1459 113.772 47.9378C113.115 49.6998 112.025 51.0735 110.502 52.059C109.008 53.0147 106.948 53.4925 104.32 53.4925ZM104.32 48.6097C105.425 48.6097 106.231 48.3708 106.739 47.893C107.276 47.4152 107.635 46.7581 107.814 45.922C107.993 45.0858 108.083 44.1749 108.083 43.1894V26.4804C108.083 25.465 107.993 24.5541 107.814 23.7478C107.635 22.9415 107.276 22.3143 106.739 21.8664C106.231 21.3885 105.425 21.1496 104.32 21.1496C103.275 21.1496 102.483 21.3885 101.946 21.8664C101.408 22.3143 101.05 22.9415 100.87 23.7478C100.691 24.5541 100.602 25.465 100.602 26.4804V43.1894C100.602 44.1749 100.676 45.0858 100.826 45.922C101.005 46.7581 101.363 47.4152 101.901 47.893C102.438 48.3708 103.245 48.6097 104.32 48.6097ZM119.796 52.9998V16.7148H126.381V31.9007H133.772V16.7148H140.402V52.9998H133.772V36.6043H126.381V52.9998H119.796ZM145.954 52.9998V16.7148H161.185V21.3736H152.584V31.8111H159.348V36.4251H152.584V48.4305H161.274V52.9998H145.954ZM165.205 52.9998V16.7148H171.79V31.9455H173.133L179.002 16.7148H185.587L178.688 33.827L186.124 52.9998H179.405L173.133 36.2908H171.79V52.9998H165.205ZM199.116 53.4925C196.458 53.4925 194.368 52.9699 192.845 51.9246C191.351 50.8794 190.306 49.4609 189.709 47.669C189.111 45.8473 188.813 43.7568 188.813 41.3975V28.4514C188.813 25.9727 189.111 23.8225 189.709 22.0008C190.306 20.179 191.351 18.7754 192.845 17.7899C194.368 16.8044 196.458 16.3116 199.116 16.3116C201.625 16.3116 203.581 16.7447 204.984 17.6107C206.418 18.4469 207.433 19.6564 208.03 21.2392C208.628 22.822 208.926 24.6587 208.926 26.7492V29.7953H202.565V26.6596C202.565 25.6442 202.506 24.7184 202.386 23.8822C202.297 23.046 202.013 22.389 201.535 21.9112C201.087 21.4035 200.296 21.1496 199.161 21.1496C198.026 21.1496 197.19 21.4184 196.652 21.956C196.145 22.4637 195.816 23.1655 195.667 24.0614C195.517 24.9274 195.443 25.913 195.443 27.0179V42.7862C195.443 44.1002 195.547 45.1903 195.756 46.0563C195.965 46.8925 196.339 47.5346 196.876 47.9826C197.444 48.4007 198.205 48.6097 199.161 48.6097C200.266 48.6097 201.042 48.3559 201.49 47.8482C201.968 47.3106 202.267 46.6088 202.386 45.7428C202.506 44.8767 202.565 43.9061 202.565 42.831V39.5609H208.926V42.4726C208.926 44.6229 208.643 46.5342 208.075 48.2066C207.508 49.8491 206.507 51.1482 205.074 52.1038C203.67 53.0296 201.684 53.4925 199.116 53.4925Z" fill="#B19178"/>
</g>
</svg>
