<svg width="18" height="24" viewBox="0 0 18 24" fill="none" xmlns="http://www.w3.org/2000/svg">
<path d="M8.79318 0.00195312C4.0834 0.00195312 0.251728 3.83362 0.251728 8.54336C0.251728 14.3883 7.89549 22.969 8.22093 23.3314C8.52661 23.6719 9.06031 23.6713 9.36543 23.3314C9.69087 22.969 17.3346 14.3883 17.3346 8.54336C17.3345 3.83362 13.5029 0.00195312 8.79318 0.00195312ZM8.79318 12.8408C6.42357 12.8408 4.49581 10.913 4.49581 8.54336C4.49581 6.17375 6.42362 4.24599 8.79318 4.24599C11.1627 4.24599 13.0905 6.1738 13.0905 8.54341C13.0905 10.913 11.1627 12.8408 8.79318 12.8408Z" fill="#B19178"/>
</svg>
