<svg width="11" height="15" viewBox="0 0 11 15" fill="none" xmlns="http://www.w3.org/2000/svg">
<path d="M5.30493 0.000854492C2.388 0.000854492 0.0149231 2.37394 0.0149231 5.29083C0.0149231 8.91079 4.74896 14.2251 4.95052 14.4496C5.13983 14.6604 5.47037 14.6601 5.65934 14.4496C5.8609 14.2251 10.5949 8.91079 10.5949 5.29083C10.5949 2.37394 8.22183 0.000854492 5.30493 0.000854492ZM5.30493 7.95237C3.83735 7.95237 2.64342 6.75841 2.64342 5.29083C2.64342 3.82326 3.83738 2.62933 5.30493 2.62933C6.77248 2.62933 7.96641 3.82328 7.96641 5.29086C7.96641 6.75844 6.77248 7.95237 5.30493 7.95237Z" fill="white"/>
</svg>
