<svg width="218" height="121" viewBox="0 0 218 121" fill="none" xmlns="http://www.w3.org/2000/svg">
<path d="M214.069 83.3689V57.314C214.061 52.2743 212.136 47.427 208.684 43.7553L188.181 21.9968C184.42 18.0584 179.205 15.8403 173.758 15.8597H132.865V0.267639H41.8954C39.0895 0.267639 36.3965 1.38067 34.4099 3.3615C32.4232 5.34432 31.3024 8.03345 31.2946 10.8395V21.4403H8.17024C5.58423 21.4403 3.19279 22.8199 1.90072 25.0595C0.606721 27.2992 0.606721 30.0583 1.90072 32.2979C3.19279 34.5376 5.58418 35.9172 8.17024 35.9172H62.2029C65.5186 36.1526 68.4624 38.114 69.9568 41.0813C71.4512 44.0486 71.2722 47.5845 69.4879 50.3865C67.7036 53.1885 64.5766 54.8444 61.2552 54.7471H40.4735V54.9144H26.2747C23.5505 55.0759 21.1006 56.6229 19.7835 59.0124C18.4662 61.4019 18.4662 64.2991 19.7835 66.6886C21.1009 69.0781 23.5507 70.625 26.2747 70.7866H54.1702C56.8127 71.2341 59.0504 72.9893 60.117 75.4488C61.1813 77.9084 60.9303 80.7415 59.4496 82.9751C57.9668 85.2109 55.4567 86.5438 52.7756 86.5185H40.4741V93.187C38.6665 93.8603 37.4678 95.5824 37.46 97.5107V105.405H60.3354C60.1233 99.5032 62.3201 93.7692 66.4221 89.5191C70.522 85.2675 76.1745 82.868 82.0804 82.868C87.9858 82.868 93.6386 85.2673 97.7388 89.5191C101.839 93.7688 104.036 99.5032 103.825 105.405H156.409C156.198 99.5032 158.393 93.7692 162.495 89.5191C166.595 85.2675 172.248 82.868 178.154 82.868C184.059 82.868 189.712 85.2673 193.812 89.5191C197.914 93.7688 200.111 99.5032 199.899 105.405H217.862V87.9141C217.86 85.6822 216.265 83.7715 214.07 83.3687L214.069 83.3689ZM186.731 52.6828H151.247C148.844 52.6828 146.896 50.735 146.896 48.3319V33.8258C146.896 31.4227 148.844 29.4729 151.247 29.4729H173.062C174.269 29.4768 175.42 29.9827 176.242 30.8681L189.798 45.5122V45.5142C190.958 46.7615 191.281 48.5711 190.627 50.1453C189.972 51.7175 188.462 52.7624 186.759 52.8228L186.731 52.6828Z" fill="#B19178" fill-opacity="0.1"/>
<path d="M178.138 90.0887C174.077 90.0887 170.181 91.7037 167.309 94.5758C164.437 97.4478 162.822 101.343 162.822 105.404C162.822 109.465 164.437 113.361 167.309 116.233C170.181 119.105 174.077 120.718 178.138 120.718C182.198 120.718 186.094 119.105 188.966 116.233C191.838 113.361 193.451 109.465 193.451 105.404C193.451 101.343 191.838 97.4475 188.966 94.5758C186.094 91.704 182.198 90.0887 178.138 90.0887ZM178.138 112.74C176.192 112.74 174.326 111.968 172.95 110.592C171.574 109.216 170.802 107.35 170.802 105.405C170.802 103.459 171.574 101.593 172.95 100.217C174.326 98.8413 176.192 98.0688 178.138 98.0688C180.084 98.0688 181.95 98.8413 183.325 100.217C184.701 101.593 185.473 103.459 185.473 105.405C185.473 107.35 184.701 109.216 183.325 110.592C181.95 111.968 180.084 112.74 178.138 112.74Z" fill="#B19178" fill-opacity="0.1"/>
<path d="M82.0678 90.0887C78.0069 90.0965 74.1171 91.7154 71.2489 94.5914C68.3826 97.4673 66.7754 101.363 66.7812 105.422C66.7851 109.483 68.4021 113.375 71.2761 116.243C74.15 119.111 78.0437 120.722 82.1045 120.718C86.1635 120.716 90.0572 119.101 92.9275 116.231C95.7976 113.359 97.4107 109.465 97.4107 105.405C97.4107 101.338 95.7917 97.4385 92.9139 94.5663C90.036 91.6923 86.1348 90.0831 82.068 90.0889L82.0678 90.0887ZM82.0678 112.74C80.122 112.74 78.256 111.968 76.8803 110.592C75.5046 109.216 74.7301 107.35 74.7301 105.405C74.7301 103.459 75.5046 101.593 76.8803 100.217C78.256 98.8413 80.122 98.0688 82.0678 98.0688C84.0136 98.0688 85.8797 98.8413 87.2554 100.217C88.6311 101.593 89.4036 103.459 89.4036 105.405C89.4036 107.35 88.6311 109.216 87.2554 110.592C85.8797 111.968 84.0136 112.74 82.0678 112.74Z" fill="#B19178" fill-opacity="0.1"/>
</svg>
