<svg width="12" height="12" viewBox="0 0 12 12" fill="none" xmlns="http://www.w3.org/2000/svg">
<path d="M2.79572 11.6237H9.21964C9.53896 11.6233 9.8452 11.4963 10.0709 11.2705C10.2968 11.0447 10.4238 10.7385 10.4241 10.4192V6.00275C10.4238 5.68343 10.2968 5.3772 10.0709 5.15146C9.84518 4.92562 9.53894 4.79863 9.21964 4.79826H8.81815V3.19228C8.81815 2.18818 8.28249 1.26036 7.41292 0.758306C6.54335 0.256346 5.47202 0.256346 4.60245 0.758306C3.73288 1.26036 3.19722 2.18818 3.19722 3.19228V4.79826H2.79572C2.47641 4.79862 2.17017 4.92561 1.94444 5.15146C1.7186 5.37722 1.59161 5.68346 1.59124 6.00275V10.4192C1.5916 10.7385 1.71859 11.0447 1.94444 11.2705C2.17019 11.4963 2.47643 11.6233 2.79572 11.6237ZM6.30869 8.81321C6.30869 8.97955 6.1739 9.11434 6.00757 9.11434C5.84124 9.11434 5.70645 8.97955 5.70645 8.81321V7.60873C5.70645 7.4424 5.84124 7.30761 6.00757 7.30761C6.1739 7.30761 6.30869 7.4424 6.30869 7.60873V8.81321ZM4.00021 3.19228C4.00021 2.47505 4.3828 1.81233 5.00395 1.45376C5.62509 1.0952 6.39027 1.0952 7.01142 1.45376C7.63257 1.81233 8.01516 2.47508 8.01516 3.19228V4.79826H4.00021V3.19228Z" fill="#312C21"/>
</svg>
