<svg width="187" height="60" viewBox="0 0 187 60" fill="none" xmlns="http://www.w3.org/2000/svg">
<path d="M0.0655518 28.6587H18.4001V41.0179H0.0655518V28.6587Z" fill="white"/>
<path d="M19.8069 28.6587H38.1415V41.0179H19.8069V28.6587Z" fill="white"/>
<path d="M0.0655518 14.5797H18.4001V26.9311H0.0655518V14.5797Z" fill="white"/>
<path d="M19.8069 14.5797H38.1415V26.9311H19.8069V14.5797Z" fill="white"/>
<path d="M0 42.2266H38.3575V43.9625H0V42.2266Z" fill="#B19178"/>
<path d="M0.0327759 43.9148H5.8644V46.8827H0.0327759V43.9148Z" fill="#B19178"/>
<path d="M32.5106 43.9148H38.3585V46.8827H32.5106V43.9148Z" fill="#B19178"/>
<path d="M17.4692 43.9148H21.0131V46.8827H17.4692V43.9148Z" fill="#B19178"/>
<path d="M56.2736 47.1315L56.8268 15.1254H62.8724L67.4165 37.2926L72.1581 15.1254H78.0061L78.5988 47.1315H74.2523L73.7782 24.8853L69.2341 47.1315H65.7174L61.0943 24.8063L60.6596 47.1315H56.2736ZM92.0184 47.5661C89.7529 47.5661 87.9485 47.1446 86.605 46.3017C85.2615 45.4587 84.3 44.247 83.7205 42.6664C83.141 41.0859 82.8512 39.2156 82.8512 37.0555V25.0828C82.8512 22.9228 83.141 21.0788 83.7205 19.5509C84.3 17.9967 85.2615 16.8113 86.605 15.9947C87.9485 15.1781 89.7529 14.7698 92.0184 14.7698C94.3365 14.7698 96.1541 15.1781 97.4712 15.9947C98.8147 16.8113 99.7762 17.9967 100.356 19.5509C100.962 21.0788 101.265 22.9228 101.265 25.0828V37.095C101.265 39.2287 100.962 41.0859 100.356 42.6664C99.7762 44.2206 98.8147 45.4324 97.4712 46.3017C96.1541 47.1446 94.3365 47.5661 92.0184 47.5661ZM92.0184 43.2591C92.993 43.2591 93.7043 43.0484 94.1521 42.6269C94.6263 42.2054 94.9424 41.6259 95.1004 40.8883C95.2585 40.1507 95.3375 39.3473 95.3375 38.478V23.7394C95.3375 22.8437 95.2585 22.0403 95.1004 21.329C94.9424 20.6178 94.6263 20.0646 94.1521 19.6695C93.7043 19.248 92.993 19.0373 92.0184 19.0373C91.0964 19.0373 90.3983 19.248 89.9241 19.6695C89.45 20.0646 89.1339 20.6178 88.9758 21.329C88.8178 22.0403 88.7387 22.8437 88.7387 23.7394V38.478C88.7387 39.3473 88.8046 40.1507 88.9363 40.8883C89.0944 41.6259 89.4105 42.2054 89.8846 42.6269C90.3588 43.0484 91.07 43.2591 92.0184 43.2591ZM105.669 47.1315V15.1254H111.478V28.5205H117.998V15.1254H123.846V47.1315H117.998V32.6695H111.478V47.1315H105.669ZM128.743 47.1315V15.1254H142.178V19.2348H134.591V28.4415H140.557V32.5114H134.591V43.1011H142.257V47.1315H128.743ZM145.723 47.1315V15.1254H151.532V28.56H152.717L157.893 15.1254H163.702L157.617 30.2196L164.176 47.1315H158.249L152.717 32.3929H151.532V47.1315H145.723ZM175.636 47.5661C173.291 47.5661 171.447 47.1051 170.104 46.1831C168.787 45.2612 167.865 44.0099 167.338 42.4293C166.811 40.8225 166.548 38.9785 166.548 36.8974V25.478C166.548 23.2916 166.811 21.3949 167.338 19.788C167.865 18.1811 168.787 16.943 170.104 16.0737C171.447 15.2044 173.291 14.7698 175.636 14.7698C177.849 14.7698 179.574 15.1517 180.812 15.9157C182.076 16.6533 182.972 17.7201 183.499 19.1163C184.026 20.5124 184.289 22.1325 184.289 23.9765V26.6634H178.678V23.8974C178.678 23.0018 178.626 22.1852 178.52 21.4476C178.441 20.71 178.191 20.1305 177.769 19.709C177.374 19.2612 176.676 19.0373 175.675 19.0373C174.674 19.0373 173.937 19.2743 173.462 19.7485C173.015 20.1963 172.725 20.8154 172.593 21.6056C172.461 22.3696 172.396 23.2389 172.396 24.2135V38.1224C172.396 39.2814 172.488 40.2429 172.672 41.0069C172.857 41.7444 173.186 42.3108 173.66 42.7059C174.161 43.0747 174.832 43.2591 175.675 43.2591C176.65 43.2591 177.335 43.0352 177.73 42.5874C178.151 42.1132 178.415 41.4942 178.52 40.7303C178.626 39.9663 178.678 39.1102 178.678 38.1619V35.2774H184.289V37.8458C184.289 39.7424 184.039 41.4283 183.538 42.9035C183.038 44.3523 182.155 45.4982 180.891 46.3412C179.653 47.1578 177.901 47.5661 175.636 47.5661Z" fill="white"/>
<mask id="mask0_1_1082" style="mask-type:alpha" maskUnits="userSpaceOnUse" x="53" y="30" width="134" height="19">
<rect x="53.9423" y="30.0994" width="133.058" height="17.9808" fill="#FFC501"/>
</mask>
<g mask="url(#mask0_1_1082)">
<path d="M56.2736 47.1315L56.8268 15.1254H62.8723L67.4164 37.2926L72.1581 15.1254H78.0061L78.5988 47.1315H74.2523L73.7781 24.8853L69.234 47.1315H65.7173L61.0942 24.8063L60.6596 47.1315H56.2736ZM92.0183 47.5661C89.7529 47.5661 87.9484 47.1446 86.6049 46.3017C85.2615 45.4587 84.3 44.247 83.7204 42.6664C83.1409 41.0859 82.8511 39.2156 82.8511 37.0555V25.0828C82.8511 22.9228 83.1409 21.0788 83.7204 19.5509C84.3 17.9967 85.2615 16.8113 86.6049 15.9947C87.9484 15.1781 89.7529 14.7698 92.0183 14.7698C94.3364 14.7698 96.1541 15.1781 97.4712 15.9947C98.8147 16.8113 99.7761 17.9967 100.356 19.5509C100.962 21.0788 101.264 22.9228 101.264 25.0828V37.095C101.264 39.2287 100.962 41.0859 100.356 42.6664C99.7761 44.2206 98.8147 45.4324 97.4712 46.3017C96.1541 47.1446 94.3364 47.5661 92.0183 47.5661ZM92.0183 43.2591C92.993 43.2591 93.7042 43.0484 94.152 42.6269C94.6262 42.2054 94.9423 41.6259 95.1004 40.8883C95.2584 40.1507 95.3374 39.3473 95.3374 38.478V23.7394C95.3374 22.8437 95.2584 22.0403 95.1004 21.329C94.9423 20.6178 94.6262 20.0646 94.152 19.6695C93.7042 19.248 92.993 19.0373 92.0183 19.0373C91.0963 19.0373 90.3982 19.248 89.9241 19.6695C89.4499 20.0646 89.1338 20.6178 88.9757 21.329C88.8177 22.0403 88.7387 22.8437 88.7387 23.7394V38.478C88.7387 39.3473 88.8045 40.1507 88.9362 40.8883C89.0943 41.6259 89.4104 42.2054 89.8846 42.6269C90.3587 43.0484 91.07 43.2591 92.0183 43.2591ZM105.669 47.1315V15.1254H111.478V28.5205H117.998V15.1254H123.846V47.1315H117.998V32.6695H111.478V47.1315H105.669ZM128.743 47.1315V15.1254H142.177V19.2348H134.591V28.4415H140.557V32.5114H134.591V43.1011H142.257V47.1315H128.743ZM145.723 47.1315V15.1254H151.532V28.56H152.717L157.893 15.1254H163.702L157.617 30.2196L164.176 47.1315H158.249L152.717 32.3929H151.532V47.1315H145.723ZM175.636 47.5661C173.291 47.5661 171.447 47.1051 170.104 46.1831C168.787 45.2612 167.865 44.0099 167.338 42.4293C166.811 40.8225 166.548 38.9785 166.548 36.8974V25.478C166.548 23.2916 166.811 21.3949 167.338 19.788C167.865 18.1811 168.787 16.943 170.104 16.0737C171.447 15.2044 173.291 14.7698 175.636 14.7698C177.848 14.7698 179.574 15.1517 180.812 15.9157C182.076 16.6533 182.972 17.7201 183.499 19.1163C184.026 20.5124 184.289 22.1325 184.289 23.9765V26.6634H178.678V23.8974C178.678 23.0018 178.626 22.1852 178.52 21.4476C178.441 20.71 178.191 20.1305 177.769 19.709C177.374 19.2612 176.676 19.0373 175.675 19.0373C174.674 19.0373 173.937 19.2743 173.462 19.7485C173.015 20.1963 172.725 20.8154 172.593 21.6056C172.461 22.3696 172.396 23.2389 172.396 24.2135V38.1224C172.396 39.2814 172.488 40.2429 172.672 41.0069C172.857 41.7444 173.186 42.3108 173.66 42.7059C174.161 43.0747 174.832 43.2591 175.675 43.2591C176.65 43.2591 177.335 43.0352 177.73 42.5874C178.151 42.1132 178.415 41.4942 178.52 40.7303C178.626 39.9663 178.678 39.1102 178.678 38.1619V35.2774H184.289V37.8458C184.289 39.7424 184.039 41.4283 183.538 42.9035C183.038 44.3523 182.155 45.4982 180.891 46.3412C179.653 47.1578 177.901 47.5661 175.636 47.5661Z" fill="#B19178"/>
</g>
</svg>
